<svg width="22" height="22" viewBox="0 0 22 22" fill="none" xmlns="http://www.w3.org/2000/svg">
<g id="Group">
<path id="Path" d="M1.82959 18.9033C3.00777 18.4366 4.3196 18.4366 5.49778 18.9033C6.67597 19.3701 7.9878 19.3701 9.16598 18.9033C10.3442 18.4366 11.656 18.4366 12.8342 18.9033C14.0124 19.3701 15.3242 19.3701 16.5024 18.9033C17.6806 18.4366 18.9924 18.4366 20.1706 18.9033" stroke="white" stroke-width="1.5" stroke-linecap="round" stroke-linejoin="round"/>
<path id="Path_2" d="M16.5026 3.6636C16.5026 7.20891 14.0392 10.0829 11.0003 10.0829C7.96151 10.0829 5.49805 7.20891 5.49805 3.6636" stroke="white" stroke-width="1.5" stroke-linecap="round" stroke-linejoin="round"/>
<path id="Path_3" d="M2.74658 16.5023V3.20511C2.74658 2.95187 2.95187 2.74658 3.20511 2.74658H5.0392C5.29244 2.74658 5.49773 2.95187 5.49773 3.20511V16.5023" stroke="white" stroke-width="1.5" stroke-linecap="round" stroke-linejoin="round"/>
<path id="Path_4" d="M16.5024 16.5023V3.20511C16.5024 2.95187 16.7077 2.74658 16.961 2.74658H18.7951C19.0483 2.74658 19.2536 2.95187 19.2536 3.20511V16.5023" stroke="white" stroke-width="1.5" stroke-linecap="round" stroke-linejoin="round"/>
<path id="Path_5" d="M16.5026 13.7512H5.49805" stroke="white" stroke-width="1.5" stroke-linecap="round" stroke-linejoin="round"/>
<path id="Path_6" d="M8.24905 13.7511V9.22183" stroke="white" stroke-width="1.5" stroke-linecap="round" stroke-linejoin="round"/>
<path id="Path_7" d="M11 13.7511V10.0829" stroke="white" stroke-width="1.5" stroke-linecap="round" stroke-linejoin="round"/>
<path id="Path_8" d="M19.2534 13.7512H21.0875" stroke="white" stroke-width="1.5" stroke-linecap="round" stroke-linejoin="round"/>
<path id="Path_9" d="M2.74669 13.7512H0.912598" stroke="white" stroke-width="1.5" stroke-linecap="round" stroke-linejoin="round"/>
<path id="Path_10" d="M13.7515 13.7511V9.22183" stroke="white" stroke-width="1.5" stroke-linecap="round" stroke-linejoin="round"/>
<path id="Path_11" d="M21.0878 8.24885C19.8958 7.02209 19.2366 5.37408 19.2537 3.6636" stroke="white" stroke-width="1.5" stroke-linecap="round" stroke-linejoin="round"/>
<path id="Path_12" d="M0.912598 8.24885C2.10468 7.02209 2.76388 5.37408 2.74669 3.6636" stroke="white" stroke-width="1.5" stroke-linecap="round" stroke-linejoin="round"/>
</g>
</svg>
