<svg width="22" height="22" viewBox="0 0 22 22" fill="none" xmlns="http://www.w3.org/2000/svg">
<g id="Group">
<path id="Path" fill-rule="evenodd" clip-rule="evenodd" d="M3.66363 3.6636H12.8341C13.3406 3.6636 13.7512 4.07418 13.7512 4.58065V18.3364H3.66363C3.15716 18.3364 2.74658 17.9258 2.74658 17.4193V4.58065C2.74658 4.07418 3.15716 3.6636 3.66363 3.6636Z" stroke="white" stroke-width="1.5" stroke-linecap="round" stroke-linejoin="round"/>
<path id="Path_2" fill-rule="evenodd" clip-rule="evenodd" d="M13.7515 7.33182H18.3367C18.8432 7.33182 19.2538 7.74239 19.2538 8.24887V17.4194C19.2538 17.9258 18.8432 18.3364 18.3367 18.3364H13.7515V7.33182Z" stroke="white" stroke-width="1.5" stroke-linecap="round" stroke-linejoin="round"/>
<path id="Path_3" d="M6.41507 7.21718C6.35176 7.21718 6.30044 7.26851 6.30044 7.33182C6.30044 7.39512 6.35176 7.44645 6.41507 7.44645C6.47838 7.44645 6.5297 7.39512 6.5297 7.33182C6.5297 7.26851 6.47838 7.21718 6.41507 7.21718" stroke="white" stroke-width="1.5" stroke-linecap="round" stroke-linejoin="round"/>
<path id="Path_4" d="M10.083 7.21718C10.0197 7.21718 9.9684 7.26851 9.9684 7.33182C9.9684 7.39512 10.0197 7.44645 10.083 7.44645C10.1463 7.44645 10.1977 7.39512 10.1977 7.33182C10.1977 7.26851 10.1463 7.21718 10.083 7.21718" stroke="white" stroke-width="1.5" stroke-linecap="round" stroke-linejoin="round"/>
<path id="Path_5" d="M6.41507 10.8854C6.35176 10.8854 6.30044 10.9367 6.30044 11C6.30044 11.0633 6.35176 11.1146 6.41507 11.1146C6.47838 11.1146 6.5297 11.0633 6.5297 11C6.5297 10.9367 6.47838 10.8854 6.41507 10.8854" stroke="white" stroke-width="1.5" stroke-linecap="round" stroke-linejoin="round"/>
<path id="Path_6" d="M10.083 10.8854C10.0197 10.8854 9.9684 10.9367 9.9684 11C9.9684 11.0633 10.0197 11.1146 10.083 11.1146C10.1463 11.1146 10.1977 11.0633 10.1977 11C10.1977 10.9367 10.1463 10.8854 10.083 10.8854" stroke="white" stroke-width="1.5" stroke-linecap="round" stroke-linejoin="round"/>
<path id="Path_7" d="M6.41507 14.5536C6.35176 14.5536 6.30044 14.6049 6.30044 14.6682C6.30044 14.7315 6.35176 14.7828 6.41507 14.7828C6.47838 14.7828 6.5297 14.7315 6.5297 14.6682C6.5297 14.6049 6.47838 14.5536 6.41507 14.5536" stroke="white" stroke-width="1.5" stroke-linecap="round" stroke-linejoin="round"/>
<path id="Path_8" d="M10.083 14.5536C10.0197 14.5536 9.9684 14.6049 9.9684 14.6682C9.9684 14.7315 10.0197 14.7828 10.083 14.7828C10.1463 14.7828 10.1977 14.7315 10.1977 14.6682C10.1977 14.6049 10.1463 14.5536 10.083 14.5536" stroke="white" stroke-width="1.5" stroke-linecap="round" stroke-linejoin="round"/>
<path id="Path_9" d="M16.5025 10.8854C16.4392 10.8854 16.3878 10.9367 16.3878 11C16.3878 11.0633 16.4392 11.1146 16.5025 11.1146C16.5658 11.1146 16.6171 11.0633 16.6171 11C16.6171 10.9367 16.5658 10.8854 16.5025 10.8854" stroke="white" stroke-width="1.5" stroke-linecap="round" stroke-linejoin="round"/>
<path id="Path_10" d="M16.5025 14.5536C16.4392 14.5536 16.3878 14.6049 16.3878 14.6682C16.3878 14.7315 16.4392 14.7828 16.5025 14.7828C16.5658 14.7828 16.6171 14.7315 16.6171 14.6682C16.6171 14.6049 16.5658 14.5536 16.5025 14.5536" stroke="white" stroke-width="1.5" stroke-linecap="round" stroke-linejoin="round"/>
</g>
</svg>
