<svg width="20" height="20" viewBox="0 0 20 20" fill="none" xmlns="http://www.w3.org/2000/svg">
<g id="Group">
<g id="Group_2">
<path id="Path" d="M13.3332 1.66675V5.00008" stroke="#2D3856" stroke-width="1.3" stroke-linecap="round" stroke-linejoin="round"/>
<path id="Path_2" d="M6.66667 1.66675V5.00008" stroke="#2D3856" stroke-width="1.3" stroke-linecap="round" stroke-linejoin="round"/>
<path id="Path_3" d="M2.5 7.49992H17.5" stroke="#2D3856" stroke-width="1.3" stroke-linecap="round" stroke-linejoin="round"/>
<path id="Path_4" fill-rule="evenodd" clip-rule="evenodd" d="M15.8333 3.33325H4.16667C3.24583 3.33325 2.5 4.07909 2.5 4.99992V15.8333C2.5 16.7541 3.24583 17.4999 4.16667 17.4999H15.8333C16.7542 17.4999 17.5 16.7541 17.5 15.8333V4.99992C17.5 4.07909 16.7542 3.33325 15.8333 3.33325Z" stroke="#2D3856" stroke-width="1.3" stroke-linecap="round" stroke-linejoin="round"/>
<path id="Path_5" d="M5.84406 10.6075C5.72906 10.6075 5.63573 10.7008 5.63656 10.8158C5.63656 10.9308 5.72989 11.0242 5.84489 11.0242C5.95989 11.0242 6.05323 10.9308 6.05323 10.8158C6.05323 10.7008 5.95989 10.6075 5.84406 10.6075" stroke="#2D3856" stroke-width="1.3" stroke-linecap="round" stroke-linejoin="round"/>
<path id="Path_6" d="M10.0111 10.6075C9.89605 10.6075 9.80272 10.7008 9.80355 10.8158C9.80355 10.9308 9.89688 11.0242 10.0119 11.0242C10.1269 11.0242 10.2202 10.9308 10.2202 10.8158C10.2202 10.7008 10.1269 10.6075 10.0111 10.6075" stroke="#2D3856" stroke-width="1.3" stroke-linecap="round" stroke-linejoin="round"/>
<path id="Path_7" d="M14.1776 10.6075C14.0626 10.6075 13.9692 10.7008 13.9701 10.8158C13.9701 10.9308 14.0634 11.0242 14.1784 11.0242C14.2934 11.0242 14.3867 10.9308 14.3867 10.8158C14.3867 10.7008 14.2934 10.6075 14.1776 10.6075" stroke="#2D3856" stroke-width="1.3" stroke-linecap="round" stroke-linejoin="round"/>
<path id="Path_8" d="M5.84406 13.9408C5.72906 13.9408 5.63573 14.0341 5.63656 14.1491C5.63656 14.2641 5.72989 14.3574 5.84489 14.3574C5.95989 14.3574 6.05323 14.2641 6.05323 14.1491C6.05323 14.0341 5.95989 13.9408 5.84406 13.9408" stroke="#2D3856" stroke-width="1.3" stroke-linecap="round" stroke-linejoin="round"/>
<path id="Path_9" d="M10.0111 13.9408C9.89605 13.9408 9.80272 14.0341 9.80355 14.1491C9.80355 14.2641 9.89688 14.3574 10.0119 14.3574C10.1269 14.3574 10.2202 14.2641 10.2202 14.1491C10.2202 14.0341 10.1269 13.9408 10.0111 13.9408" stroke="#2D3856" stroke-width="1.3" stroke-linecap="round" stroke-linejoin="round"/>
</g>
</g>
</svg>
