<svg width="22" height="22" viewBox="0 0 22 22" fill="none" xmlns="http://www.w3.org/2000/svg">
<g id="Group">
<path id="Path" d="M20.1706 19.2534H1.82959" stroke="white" stroke-width="1.5" stroke-linecap="round" stroke-linejoin="round"/>
<path id="Path_2" d="M16.0441 8.24884C16.0441 9.85368 19.2538 9.85368 19.2538 12.2609V12.2609C19.2538 13.5904 18.176 14.6682 16.8466 14.6682H15.2417C13.9122 14.6682 12.8345 13.5904 12.8345 12.2609V12.2609C12.8345 9.85368 16.0441 9.85368 16.0441 8.24884" stroke="white" stroke-width="1.5" stroke-linecap="round" stroke-linejoin="round"/>
<path id="Path_3" fill-rule="evenodd" clip-rule="evenodd" d="M11.0002 0.912476C11.0002 2.74657 14.6684 2.74657 14.6684 5.49772V5.49772C14.6684 7.01713 13.4367 8.24886 11.9173 8.24886H10.0832C8.56376 8.24886 7.33203 7.01713 7.33203 5.49772V5.49772C7.33203 2.74657 11.0002 2.74657 11.0002 0.912476Z" stroke="white" stroke-width="1.5" stroke-linecap="round" stroke-linejoin="round"/>
<path id="Path_4" d="M8.24905 10.4389V7.54504" stroke="white" stroke-width="1.5" stroke-linecap="round" stroke-linejoin="round"/>
<path id="Path_5" d="M13.7515 10.4395V7.54504" stroke="white" stroke-width="1.5" stroke-linecap="round" stroke-linejoin="round"/>
<path id="Path_6" d="M5.95625 8.24884C5.95625 9.85368 9.16592 9.85368 9.16592 12.2609V12.2609C9.16592 13.5904 8.08816 14.6682 6.75867 14.6682H5.15383C3.82435 14.6682 2.74658 13.5904 2.74658 12.2609V12.2609C2.74658 9.85368 5.95625 9.85368 5.95625 8.24884" stroke="white" stroke-width="1.5" stroke-linecap="round" stroke-linejoin="round"/>
<path id="Path_7" d="M13.7515 19.2534V14.1428" stroke="white" stroke-width="1.5" stroke-linecap="round" stroke-linejoin="round"/>
<path id="Path_8" d="M18.3365 14.1464V19.2534" stroke="white" stroke-width="1.5" stroke-linecap="round" stroke-linejoin="round"/>
<path id="Path_9" d="M3.6636 19.2534V14.1464" stroke="white" stroke-width="1.5" stroke-linecap="round" stroke-linejoin="round"/>
<path id="Path_10" d="M8.24905 14.1464V19.2534" stroke="white" stroke-width="1.5" stroke-linecap="round" stroke-linejoin="round"/>
<path id="Path_11" d="M11 17.4194V19.2535" stroke="white" stroke-width="1.5" stroke-linecap="round" stroke-linejoin="round"/>
</g>
</svg>
