<svg width="22" height="22" viewBox="0 0 22 22" fill="none" xmlns="http://www.w3.org/2000/svg">
<g id="Group">
<g id="Layer_2">
<path id="Path" fill-rule="evenodd" clip-rule="evenodd" d="M8.24984 16.5H13.7498C14.7624 16.5 15.5832 17.3208 15.5832 18.3333V18.3333C15.5832 18.8396 15.1728 19.25 14.6665 19.25H7.33317C6.82691 19.25 6.4165 18.8396 6.4165 18.3333V18.3333C6.4165 17.3208 7.23732 16.5 8.24984 16.5Z" stroke="white" stroke-width="1.5" stroke-linecap="round" stroke-linejoin="round"/>
<path id="Path_2" d="M11 10.0833C11.1376 8.69693 12.3615 7.677 13.75 7.79166C15.1385 7.677 16.3624 8.69693 16.5 10.0833" stroke="white" stroke-width="1.5" stroke-linecap="round" stroke-linejoin="round"/>
<path id="Path_3" d="M5.5 10.0833C5.6376 8.69693 6.86152 7.677 8.25 7.79166C9.63848 7.677 10.8624 8.69693 11 10.0833" stroke="white" stroke-width="1.5" stroke-linecap="round" stroke-linejoin="round"/>
<path id="Path_4" d="M11 5.50001C11 4.23436 12.026 3.20834 13.2917 3.20834C14.5573 3.20834 15.5833 4.23436 15.5833 5.50001" stroke="white" stroke-width="1.5" stroke-linecap="round" stroke-linejoin="round"/>
<path id="Path_5" d="M6.4165 5.50001C6.4165 4.23436 7.44252 3.20834 8.70817 3.20834C9.97382 3.20834 10.9998 4.23436 10.9998 5.50001" stroke="white" stroke-width="1.5" stroke-linecap="round" stroke-linejoin="round"/>
<path id="Path_6" d="M10.9998 12.8333V5.5" stroke="white" stroke-width="1.5" stroke-linecap="round" stroke-linejoin="round"/>
<path id="Path_7" fill-rule="evenodd" clip-rule="evenodd" d="M4.58317 12.8333H17.4165C17.9228 12.8333 18.3332 13.2437 18.3332 13.75V13.75C18.3332 15.2688 17.102 16.5 15.5832 16.5H6.4165C4.89772 16.5 3.6665 15.2688 3.6665 13.75V13.75C3.6665 13.2437 4.07691 12.8333 4.58317 12.8333Z" stroke="white" stroke-width="1.5" stroke-linecap="round" stroke-linejoin="round"/>
</g>
</g>
</svg>
