<svg width="22" height="22" viewBox="0 0 22 22" fill="none" xmlns="http://www.w3.org/2000/svg">
<g id="Group">
<path id="Path" d="M7.03231 12.1813C7.4498 12.3696 7.82906 12.6332 8.15111 12.9588C9.19724 14.005 9.48169 15.421 8.78321 16.1195C8.08473 16.818 6.66883 16.5335 5.6227 15.4874C5.29707 15.1653 5.03351 14.786 4.84521 14.3685" stroke="white" stroke-width="1.5" stroke-linecap="round" stroke-linejoin="round"/>
<path id="Path_2" d="M2.46212 14.8552C1.41441 13.8074 1.69759 11.827 3.09423 10.4303C4.49086 9.03362 6.47186 8.75106 7.51894 9.79818V9.79818C8.04259 10.3219 8.04259 11.1709 7.51894 11.6946L4.35843 14.8552C4.10697 15.1067 3.76591 15.2479 3.41028 15.2479C3.05465 15.2479 2.71358 15.1067 2.46212 14.8552V14.8552" stroke="white" stroke-width="1.5" stroke-linecap="round" stroke-linejoin="round"/>
<path id="Path_3" d="M14.404 7.03213C14.2157 7.44962 13.9521 7.82887 13.6265 8.15093C12.5803 9.19706 11.1643 9.48151 10.4658 8.78303C9.76735 8.08455 10.0518 6.66865 11.098 5.62251C11.4201 5.29688 11.7993 5.03333 12.2168 4.84503" stroke="white" stroke-width="1.5" stroke-linecap="round" stroke-linejoin="round"/>
<path id="Path_4" d="M11.7302 2.46206C12.7779 1.41435 14.7584 1.69753 16.155 3.09416C17.5517 4.4908 17.8343 6.4718 16.7872 7.51888V7.51888C16.2635 8.04253 15.4145 8.04253 14.8908 7.51888L11.7302 4.35837C11.4787 4.10691 11.3374 3.76585 11.3374 3.41022C11.3374 3.05459 11.4787 2.71352 11.7302 2.46206V2.46206" stroke="white" stroke-width="1.5" stroke-linecap="round" stroke-linejoin="round"/>
<path id="Path_5" d="M16.4012 17.5033C16.1658 18.0251 15.8364 18.4992 15.4293 18.9018C14.1216 20.2095 12.3517 20.565 11.4786 19.6919C10.6054 18.8188 10.961 17.049 12.2687 15.7413C12.6713 15.3342 13.1454 15.0048 13.6673 14.7694" stroke="white" stroke-width="1.5" stroke-linecap="round" stroke-linejoin="round"/>
<path id="Path_6" d="M13.0588 11.7907C14.3685 10.481 16.8441 10.835 18.5899 12.5808C20.3358 14.3266 20.689 16.8029 19.3801 18.1117V18.1117C18.7255 18.7663 17.6642 18.7663 17.0096 18.1117L13.0588 14.1611C12.7445 13.8467 12.5679 13.4204 12.5679 12.9759C12.5679 12.5313 12.7445 12.105 13.0588 11.7907V11.7907" stroke="white" stroke-width="1.5" stroke-linecap="round" stroke-linejoin="round"/>
</g>
</svg>
