<svg width="140" height="34" viewBox="0 0 140 34" fill="none" xmlns="http://www.w3.org/2000/svg">
<g id="Frame" clip-path="url(#clip0_3_18)">
<path id="Vector" d="M67.0183 0.5C66.2374 3.90442 65.9293 5.24834 61.2705 5.66866C65.9293 5.24834 65.621 6.59227 64.8402 9.99674C65.6163 6.6125 65.9293 5.24834 70.5148 4.83463C65.9293 5.24834 66.2421 3.88419 67.0183 0.5Z" fill="#2D3856"/>
<path id="Vector_2" d="M69.0319 9.5319C67.7219 10.3506 66.1313 10.5452 64.5927 10.7247C62.9073 10.9212 61.2388 11.1249 59.5896 11.3352C60.0264 9.43216 60.2298 8.66105 62.8408 8.42548C60.2024 8.66351 60.3824 7.87863 60.829 5.93148C60.3798 7.89027 60.2024 8.66351 57.522 8.90531C60.1748 8.66601 60.0284 9.42086 59.5896 11.3352C54.6661 11.9631 49.9128 12.6502 45.3848 13.3822C50.6311 12.7489 57.9229 12.1319 64.1811 11.6024C66.2126 11.4305 68.9378 11.218 69.5167 13.1534C69.6998 13.7657 69.703 14.5203 69.5924 15.4216H66.8233L64.5374 26.0677H70.6208L72.9066 15.4216H69.8198C70.2922 13.9989 70.8823 12.8889 71.8494 12.0331C73.0807 10.9436 74.8213 10.7156 76.4683 10.598C109.942 8.20694 136.297 9.95414 136.731 14.8286C136.855 16.2165 134.864 17.7186 131.183 19.2365V19.2421L131.171 19.247V19.2365C132.535 18.6654 135.28 17.2499 135.448 15.4216H129.621L127.317 20.6879C127.316 20.6973 127.308 20.7068 127.297 20.7163H127.282L127.288 20.6879C127.277 20.1011 127.262 19.5144 127.241 18.9277C127.23 18.341 127.218 17.759 127.205 17.1817C127.194 16.595 127.179 16.0083 127.158 15.4216H119.345L117.059 26.0677H122.41L123.668 20.2053L123.672 20.1911H123.686C123.688 20.1911 123.691 20.1913 123.692 20.1919C123.696 20.1931 123.698 20.1957 123.698 20.1996C123.698 20.2007 123.698 20.202 123.698 20.2033L123.697 20.2053C123.732 21.1799 123.763 22.1546 123.788 23.1294C123.813 24.1041 123.842 25.0836 123.876 26.0677H127.613L130.318 20.1627L130.321 20.1485H130.336C130.342 20.1485 130.345 20.1501 130.347 20.1534C130.347 20.154 130.347 20.1548 130.347 20.1555V20.1567C130.347 20.1584 130.347 20.1604 130.347 20.1627L129.079 26.0677H134.723L136.741 16.67C138.793 15.4341 139.843 14.2392 139.721 13.1294C139.136 7.80572 111.777 6.31367 77.0532 9.43719C76.9878 9.44313 76.9216 9.44915 76.855 9.45526L76.846 9.45608C75.2104 9.6059 73.2461 9.78575 72.4136 8.41959C71.6141 7.10767 72.1243 4.88335 72.8574 1.68726C71.9582 5.60729 71.3971 8.05387 69.0319 9.5319Z" fill="#2D3856"/>
<path id="Vector_3" fill-rule="evenodd" clip-rule="evenodd" d="M46.0529 15.6205C45.0088 15.2041 43.6169 14.9958 41.8774 14.9958C41.0468 14.9958 40.2734 15.0479 39.5571 15.152C38.8507 15.2561 38.1976 15.4075 37.5979 15.6063C36.9983 15.805 36.4539 16.0415 35.965 16.316C35.4879 16.5809 35.0564 16.8838 34.6706 17.2244C34.2868 17.5557 33.9506 17.9153 33.6621 18.3033C33.3854 18.6818 33.1534 19.0793 32.9663 19.4956C32.791 19.9025 32.6566 20.3237 32.5631 20.759C32.4494 21.2889 32.4031 21.8 32.4245 22.2921C32.448 22.7747 32.5361 23.2289 32.689 23.6547C32.8537 24.0711 33.0851 24.4497 33.3834 24.7903C33.6914 25.1311 34.0681 25.4243 34.5136 25.6704C34.9613 25.907 35.4787 26.0915 36.0659 26.224C36.6629 26.3565 37.3327 26.4228 38.0754 26.4228C38.4174 26.4228 38.7137 26.4086 38.9641 26.3802C39.2222 26.3612 39.4883 26.3281 39.7623 26.2808C40.0385 25.7225 40.3158 25.1594 40.594 24.5916C40.8841 24.0143 41.1684 23.4418 41.4465 22.874C41.5259 22.7122 41.6051 22.5507 41.6843 22.3896C41.7579 22.2398 41.8314 22.0904 41.9049 21.9412C42.0296 21.6882 42.154 21.436 42.2783 21.1848L41.2299 26.0678H47.4452L48.4936 21.1848H42.2783L48.9217 19.737C48.9584 18.838 48.7499 18.0336 48.2964 17.3238C47.8449 16.6046 47.0971 16.0368 46.0529 15.6205ZM42.2783 21.1848C42.1184 21.3836 41.8894 21.5397 41.5914 21.6533C41.2954 21.7574 40.8983 21.8094 40.3999 21.8094C40.0774 21.8094 39.8059 21.7763 39.5857 21.71C39.3654 21.6438 39.1941 21.5539 39.0719 21.4403C38.9497 21.3268 38.8686 21.2037 38.8286 21.0713C38.7907 20.9293 38.7879 20.7826 38.8204 20.6313C38.8652 20.423 38.9606 20.2291 39.1067 20.0492C39.2646 19.86 39.4887 19.7038 39.7789 19.5808C40.079 19.4578 40.4586 19.3963 40.9179 19.3963C41.4065 19.3963 41.7812 19.472 42.0419 19.6234C42.3025 19.7748 42.4533 19.983 42.4941 20.248C42.5349 20.513 42.463 20.8252 42.2783 21.1848Z" fill="#2D3856"/>
<path id="Vector_4" d="M59.4208 15.0244C59.0948 15.0053 58.7549 14.9958 58.4013 14.9958C57.5023 14.9958 56.6623 15.0621 55.8814 15.1946C55.1123 15.3176 54.4033 15.5022 53.7543 15.7482C53.1074 15.9848 52.5226 16.2734 51.9999 16.6141C51.4891 16.9453 51.0365 17.3238 50.6421 17.7497C50.2575 18.1755 49.9332 18.6392 49.6691 19.1407C49.4148 19.6423 49.2278 20.1722 49.1079 20.7306C49.0966 20.7831 49.086 20.8354 49.0762 20.8878C56.0336 20.7465 57.7038 19.0686 59.4208 15.0244Z" fill="#2D3856"/>
<path id="Vector_5" d="M49.0763 20.8877C49.0058 21.26 48.97 21.6289 48.9688 21.9939C48.9771 22.4104 49.0383 22.8078 49.1525 23.1863C49.2764 23.5649 49.4533 23.9244 49.6831 24.2651C49.9248 24.5964 50.2262 24.8991 50.5874 25.1736C50.9585 25.448 51.4012 25.6846 51.9156 25.8834C52.432 26.0726 53.021 26.2193 53.6827 26.3233C54.0887 26.3922 54.5244 26.4402 54.9897 26.4673C56.4044 22.426 56.0216 20.7831 49.0763 20.8877Z" fill="#2D3856"/>
<path id="Vector_6" d="M55.04 26.47C55.3265 26.4856 55.624 26.4935 55.9325 26.4935C57.0955 26.4935 58.139 26.3893 59.0633 26.1812C59.9952 25.9825 60.8174 25.7033 61.5298 25.3437C62.2443 24.9746 62.8536 24.5488 63.3579 24.0661C63.8642 23.574 64.2702 23.0488 64.5757 22.4906C64.8833 21.9227 65.1021 21.336 65.2321 20.7303C65.2414 20.6872 65.2502 20.6443 65.2585 20.6016C58.4132 20.7413 56.7487 22.4425 55.04 26.47Z" fill="#2D3856"/>
<path id="Vector_7" d="M65.2592 20.6017C58.435 20.7038 58.0685 19.0413 59.4726 15.0273C60.7818 15.1081 61.8673 15.3436 62.7289 15.7339C63.8155 16.226 64.5644 16.9026 64.9757 17.7638C65.3709 18.5916 65.4654 19.5378 65.2592 20.6017Z" fill="#2D3856"/>
<path id="Vector_8" fill-rule="evenodd" clip-rule="evenodd" d="M96.7257 19.6724L102.662 19.4105C102.953 18.7385 103.015 18.1329 102.847 17.5935C102.68 17.0541 102.311 16.5904 101.739 16.2024C101.177 15.8144 100.44 15.5163 99.5265 15.3081C98.624 15.1 97.5707 14.9958 96.369 14.9958C95.519 14.9958 94.6915 15.0479 93.8874 15.152C93.0932 15.2561 92.3474 15.4075 91.6499 15.6063C90.9624 15.805 90.3415 16.0557 89.7882 16.3586C89.2457 16.652 88.8007 16.9974 88.4515 17.3948C88.104 17.7828 87.879 18.2181 87.7749 18.7008C87.6774 19.1549 87.7065 19.5666 87.8615 19.9357C88.019 20.2952 88.3482 20.6076 88.8482 20.8726C89.3482 21.1375 90.0607 21.3457 90.9857 21.4971C91.5982 21.5909 92.324 21.6537 93.1632 21.6855L87.094 22.0791C86.859 22.8551 86.8474 23.5222 87.0599 24.0806C87.2824 24.6389 87.6965 25.0979 88.3032 25.4575C88.9124 25.8076 89.6874 26.0678 90.6274 26.2382C91.5682 26.4086 92.6349 26.4937 93.8274 26.4937C94.9024 26.4937 95.9207 26.4133 96.884 26.2524C97.8549 26.101 98.724 25.8739 99.4932 25.571C100.273 25.2588 100.907 24.8755 101.397 24.4213C101.897 23.9576 102.211 23.4276 102.338 22.8315C102.457 22.2826 102.431 21.8094 102.262 21.412C102.096 21.005 101.747 20.6738 101.215 20.4183C100.686 20.1533 99.9407 19.9593 98.9799 19.8363C98.3407 19.7544 97.589 19.6998 96.7257 19.6724ZM96.5582 19.6675C96.174 19.657 95.7674 19.6518 95.3399 19.6518H94.974C94.7099 19.6518 94.4982 19.6375 94.3374 19.6092C94.1874 19.5808 94.0807 19.5335 94.0165 19.4673C93.9549 19.3915 93.9357 19.2969 93.9599 19.1834C93.9807 19.0888 94.029 18.9988 94.1057 18.9136C94.1924 18.8285 94.2957 18.7575 94.4157 18.7008C94.5474 18.6345 94.694 18.5872 94.8565 18.5588C95.0207 18.5209 95.2007 18.502 95.3965 18.502C95.709 18.502 95.9782 18.5446 96.2049 18.6297C96.4424 18.7055 96.6007 18.8333 96.679 19.013C96.759 19.1807 96.7182 19.3989 96.5582 19.6675ZM93.4282 21.6944C93.3007 21.9664 93.2732 22.194 93.3474 22.3772C93.434 22.5665 93.599 22.7084 93.8424 22.8031C94.0865 22.8977 94.369 22.945 94.6915 22.945C94.8874 22.945 95.0657 22.9308 95.2282 22.9024C95.4007 22.874 95.5565 22.8315 95.6957 22.7747C95.8349 22.7178 95.9482 22.6469 96.0349 22.5618C96.1232 22.4671 96.1799 22.363 96.204 22.2494C96.2532 22.0223 96.1624 21.8756 95.9324 21.8094C95.7124 21.7432 95.3724 21.71 94.9132 21.71H94.5465C94.1549 21.71 93.7824 21.7048 93.4282 21.6944Z" fill="#2D3856"/>
<path id="Vector_9" d="M110.483 15.4219H104.4L102.958 22.1361C102.835 22.7133 102.854 23.2385 103.016 23.7117C103.181 24.1754 103.455 24.5823 103.839 24.9325C104.235 25.2731 104.71 25.5618 105.266 25.7983C105.83 26.0349 106.448 26.21 107.117 26.3235C107.796 26.4371 108.493 26.4939 109.206 26.4939C110.105 26.4939 110.999 26.4039 111.888 26.2242C112.786 26.0444 113.616 25.7746 114.378 25.4151C115.141 25.046 115.781 24.5917 116.298 24.0524C116.825 23.5035 117.168 22.8647 117.324 22.1361L118.766 15.4219H112.683L111.478 21.0288C111.42 21.3033 111.263 21.5114 111.008 21.6534C110.753 21.7953 110.483 21.8664 110.199 21.8664C110.063 21.8664 109.93 21.8474 109.801 21.8096C109.683 21.7717 109.576 21.7197 109.483 21.6534C109.402 21.5777 109.338 21.4878 109.292 21.3837C109.255 21.2796 109.253 21.1566 109.283 21.0146L110.483 15.4219Z" fill="#2D3856"/>
<path id="Vector_10" fill-rule="evenodd" clip-rule="evenodd" d="M82.7732 15.4219C83.6817 15.4219 84.4475 15.5449 85.0683 15.7909C85.7017 16.0275 86.1933 16.354 86.5442 16.7704C86.9058 17.1773 87.1442 17.641 87.2567 18.1615C87.37 18.6819 87.3667 19.2213 87.2467 19.7797C87.1183 20.3758 86.8792 20.9437 86.5292 21.4831C86.1908 22.013 85.7467 22.4862 85.1983 22.9026C84.6592 23.3189 84.0258 23.6502 83.2991 23.8962C82.574 24.1328 81.7667 24.2511 80.8775 24.2511H77.7259L77.7082 24.2653H77.6936L77.6905 24.2795L77.3065 26.068H71.2085L73.4942 15.4219H82.7732ZM79.7358 21.1708C80.0291 21.1708 80.2835 21.1234 80.4992 21.0288C80.7268 20.9247 80.9057 20.797 81.036 20.6456C81.1682 20.4847 81.2517 20.3239 81.2862 20.163C81.3227 19.9926 81.3074 19.8364 81.2402 19.6945C81.175 19.5431 81.0547 19.4201 80.8797 19.3254C80.7045 19.2308 80.4655 19.1835 80.1626 19.1835H78.814C78.8042 19.1835 78.7933 19.1882 78.7816 19.1977L78.7785 19.2119L78.361 21.1566C78.3707 21.1566 78.3747 21.1613 78.3726 21.1708H79.7358Z" fill="#2D3856"/>
<path id="Vector_11" fill-rule="evenodd" clip-rule="evenodd" d="M9.819 21.8947L9.82508 21.8664L11.2087 15.4219H5.12543L3.16658 24.5452C0.998042 25.8184 -0.115967 27.0498 0.00955784 28.1909C0.641231 33.9338 32.4288 35.2178 71.0091 31.0588C78.319 30.2708 85.3483 29.3439 91.9367 28.32C88.445 28.6293 84.725 28.9421 80.9121 29.2628L80.9076 29.2631L80.9005 29.2638L80.8958 29.2641L80.8908 29.2645L80.8806 29.2655C77.5312 29.5471 74.1101 29.8348 70.7082 30.1315C33.7793 33.352 3.46519 31.7224 2.99972 26.4916C2.87694 25.1116 4.844 23.6188 8.48492 22.1097C5.8906 23.2397 4.78348 24.7181 4.47269 26.068H14.6692L15.5652 21.8947H9.819ZM8.30333 22.1653C8.24449 22.1884 8.18601 22.2114 8.12793 22.2345C8.3405 22.1519 8.557 22.0691 8.77708 21.9865C8.81158 21.9724 8.84633 21.9583 8.88125 21.9444C8.78217 21.9814 8.68408 22.0184 8.587 22.0555C8.536 22.075 8.48525 22.0945 8.43475 22.114C8.39075 22.1311 8.34692 22.1482 8.30333 22.1653Z" fill="#2D3856"/>
<path id="Vector_12" d="M26.4633 15.0244C26.1372 15.0053 25.7975 14.9958 25.4439 14.9958C24.5448 14.9958 23.7048 15.0621 22.9239 15.1946C22.1548 15.3176 21.4458 15.5022 20.7968 15.7482C20.1499 15.9848 19.5652 16.2734 19.0425 16.6141C18.5316 16.9453 18.079 17.3238 17.6846 17.7497C17.3 18.1755 16.9757 18.6392 16.7116 19.1407C16.4573 19.6423 16.2702 20.1722 16.1504 20.7306C16.1446 20.7576 16.139 20.7846 16.1335 20.8116C16.1284 20.837 16.1234 20.8624 16.1187 20.8878C23.0762 20.7465 24.7463 19.0686 26.4633 15.0244Z" fill="#2D3856"/>
<path id="Vector_13" d="M16.1188 20.8877C16.0484 21.26 16.0125 21.6289 16.0112 21.9939C16.0196 22.4104 16.0808 22.8078 16.195 23.1863C16.3189 23.5649 16.4958 23.9244 16.7256 24.2651C16.9672 24.5964 17.2686 24.8991 17.6299 25.1736C18.001 25.448 18.4437 25.6846 18.9581 25.8834C19.4745 26.0726 20.0636 26.2193 20.7252 26.3233C21.1312 26.3922 21.5669 26.4402 22.0321 26.4673C23.4469 22.426 23.0641 20.7831 16.1188 20.8877Z" fill="#2D3856"/>
<path id="Vector_14" d="M22.0825 26.47C22.3689 26.4856 22.6664 26.4935 22.975 26.4935C24.1379 26.4935 25.1815 26.3893 26.1058 26.1812C27.0377 25.9825 27.8599 25.7033 28.5724 25.3437C29.2868 24.9746 29.8961 24.5488 30.4004 24.0661C30.9067 23.574 31.3127 23.0488 31.6182 22.4906C31.9258 21.9227 32.1446 21.336 32.2746 20.7303C32.2839 20.6872 32.2927 20.6443 32.3009 20.6016C25.4557 20.7413 23.7912 22.4425 22.0825 26.47Z" fill="#2D3856"/>
<path id="Vector_15" d="M32.3011 20.6017C25.4769 20.7038 25.1105 19.0413 26.5146 15.0273C27.8238 15.1081 28.9092 15.3436 29.7709 15.7339C30.8575 16.226 31.6064 16.9026 32.0176 17.7638C32.4129 18.5916 32.5074 19.5378 32.3011 20.6017Z" fill="#2D3856"/>
<path id="Vector_16" d="M137.19 26.0678C137.733 26.0678 138.173 25.6322 138.173 25.0949C138.173 24.5577 137.733 24.1221 137.19 24.1221C136.647 24.1221 136.208 24.5577 136.208 25.0949C136.208 25.6322 136.647 26.0678 137.19 26.0678Z" fill="#2D3856"/>
</g>
<defs>
<clipPath id="clip0_3_18">
<rect width="140" height="33" fill="white" transform="translate(0 0.5)"/>
</clipPath>
</defs>
</svg>
